<?xml version="1.0" encoding="UTF-8"?>
<!-- EN: This logo is distributed under the Creative Commons Attribution-NonCommercial-NoDerivatives 4.0 International License (CC BY-NC-ND 4.0). © 2024 f5uii.net. All rights reserved. -->
<!-- FR: Ce logo est distribué sous licence Creative Commons Attribution - Pas d'Utilisation Commerciale - Pas de Modification 4.0 International (CC BY-NC-ND 4.0). © 2024 f5uii.net. Tous droits réservés. -->
<svg id="Logo_REF_by_f5uii.net" data-name="Logo REF by f5uii.net" xmlns="http://www.w3.org/2000/svg" xmlns:xlink="http://www.w3.org/1999/xlink" viewBox="0 0 9617.47 14833.8">
  <defs>
    <style>
      .cls-1, .cls-2 {
        fill: #ffd23c;
      }

      .cls-3 {
        filter: url(#drop-shadow-1);
      }

      .cls-4 {
        fill: #fff;
        stroke: #27348b;
        stroke-width: 16px;
      }

      .cls-4, .cls-5 {
        stroke-miterlimit: 10;
      }

      .cls-5 {
        fill: url(#Dégradé_sans_nom_28);
        stroke: #312783;
        stroke-width: 12px;
      }

      .cls-6 {
        fill: #064783;
      }

      .cls-2 {
        filter: url(#drop-shadow-2);
      }
    </style>
    <linearGradient id="Dégradé_sans_nom_28" data-name="Dégradé sans nom 28" x1="7710.68" y1="13684.63" x2="1882.56" y2="1186.18" gradientUnits="userSpaceOnUse">
      <stop offset="0" stop-color="#094883"/>
      <stop offset=".12" stop-color="#0a4983"/>
      <stop offset=".16" stop-color="#114e87"/>
      <stop offset=".19" stop-color="#1d578d"/>
      <stop offset=".21" stop-color="#2e6395"/>
      <stop offset=".23" stop-color="#4474a0"/>
      <stop offset=".25" stop-color="#5f88ae"/>
      <stop offset=".27" stop-color="#80a0bf"/>
      <stop offset=".28" stop-color="#a5bcd2"/>
      <stop offset=".3" stop-color="#cedbe6"/>
      <stop offset=".31" stop-color="#fcfdfd"/>
      <stop offset=".31" stop-color="#fff"/>
      <stop offset=".51" stop-color="#024c8c"/>
      <stop offset=".75" stop-color="#fff"/>
      <stop offset=".76" stop-color="#d9e2ec"/>
      <stop offset=".79" stop-color="#a8bfd3"/>
      <stop offset=".81" stop-color="#7d9fbe"/>
      <stop offset=".84" stop-color="#5984ac"/>
      <stop offset=".86" stop-color="#3c6e9d"/>
      <stop offset=".89" stop-color="#255e92"/>
      <stop offset=".92" stop-color="#15528a"/>
      <stop offset=".95" stop-color="#0b4b85"/>
      <stop offset="1" stop-color="#094984"/>
    </linearGradient>
    <filter id="drop-shadow-1" filterUnits="userSpaceOnUse">
      <feOffset dx="-68.03" dy="68.03"/>
      <feGaussianBlur result="blur" stdDeviation="48.19"/>
      <feFlood flood-color="#000" flood-opacity=".4"/>
      <feComposite in2="blur" operator="in"/>
      <feComposite in="SourceGraphic"/>
    </filter>
    <filter id="drop-shadow-2" filterUnits="userSpaceOnUse">
      <feOffset dx="-68.03" dy="68.03"/>
      <feGaussianBlur result="blur-2" stdDeviation="48.19"/>
      <feFlood flood-color="#000" flood-opacity=".4"/>
      <feComposite in2="blur-2" operator="in"/>
      <feComposite in="SourceGraphic"/>
    </filter>
  </defs>
  <polygon class="cls-5" points="4413.45 6 5276.1 6 9610.51 7439.15 5259.14 14827.8 4379.54 14827.8 6.97 7483.66 4413.45 6"/>
  <polygon class="cls-4" points="4859.62 800.81 872.8 7484.72 4859.62 14085.95 8744.69 7484.72 4859.62 800.81"/>
  <g>
    <path class="cls-6" d="M3701.67,7233.81c10.18,3.32,20.18,8.68,30.58,9.64,72.6,6.7,136.89,34.14,193.54,79.51,54.05,43.3,85.64,98.22,84.86,170.55-1.17,108.82-.45,217.67-.33,326.51,.1,90.92,24.74,122.2,115.32,131.79,39,4.13,47.68,20.2,47.48,55.44-.68,118.11,.16,116.8-115.25,118.8-102.81,1.78-205.92,.55-303.14-35.04-109.55-40.1-184.58-112.97-189.36-263.62-2.9-91.49-2.52-183.2-.01-274.71,4.04-147.38-56.57-179.23-178.93-191.76-58.55-6-118.05-2.69-177.12-3.41-36.17-.44-42.44,22.94-42.32,53.06,.45,119.45,.2,238.91,.28,358.36,.07,103.53-.92,207.07,1.01,310.57,.65,35.02-11.79,47.25-45.6,46.96-126.07-1.07-252.16-.93-378.24-.2-33.73,.19-45.45-12.06-44.16-47.73,2.49-68.86-1.25-137.92-1.28-206.89-.21-414.11-.14-828.22-.05-1242.32,0-38.44,2.54-76.97,.63-115.29-1.46-29.31,9.3-42.15,37.82-41.86,36.77,.36,73.55,.02,110.32,.01,216.7-.04,433.59-5.38,650.04,2.1,111.46,3.85,225.3,16,327.38,72.82,91.01,50.66,149.15,125.2,158,231.39,7.13,85.52,15.8,172.42-26.21,253.26-39,75.05-100.05,124.34-177.09,155.19-26.88,10.76-53.36,22.53-80.02,33.84,.63,4.34,1.25,8.69,1.88,13.03Zm-535.67-324.64c.12,0,.25,0,.37,0,0,70.32,1.76,140.7-.75,210.93-1.24,34.69,13.97,45.22,43.92,45.12,47.26-.16,94.53,.19,141.79-.36,88.26-1.04,154.95-69.56,162.88-157.83,5.55-61.83,5.84-124.98,.15-186.76-6.3-68.34-30.81-136.24-105.19-151.34-71.96-14.6-147.49-12.25-221.52-13.75-6.96-.14-20.27,25.26-20.68,39.1-2.11,71.58-.98,143.25-.98,214.9Z"/>
    <path class="cls-6" d="M4373.92,7290.46c0-161.93-9.32-324.57,2.71-485.58,11.28-150.99,60.11-246.69,215.25-285.55,99.65-24.96,203.33-40.57,305.87-45.07,167.8-7.38,336.14-2.33,504.25-2.44,48.44-.03,51.38,3.11,51.36,51.68,0,26.54-2.03,53.33,.78,79.57,4.02,37.63-11.84,48.94-47.13,48.7-120.81-.82-241.65-.49-362.46,1.17-124.88,1.72-210.86,81.65-205.65,209.28,1.51,37.1-.24,74.33,.38,111.48,.75,45.17,8.16,52.72,53.94,52.8,152.35,.27,304.7,.05,457.06-.09,55.15-.05,57.5,2.26,57.4,58.25-.06,34.51-.11,69.02,.17,103.53,.38,47.48-4.04,52.32-51.35,52.28-143.16-.12-286.31-.31-429.47-.65q-87.76-.21-87.88,89.17c-.06,110.17,1.87,220.38-.77,330.48-1.4,58.36,6.49,114.01,30.49,166.23,28.43,61.85,80.26,96.03,144.76,111.14,146.33,34.26,295.12,19.72,443.02,21.45,58.84,.69,61.86,2.01,61.32,62.64-.17,19.91-1.46,39.93,.18,59.7,2.96,35.6-13.72,46.08-46.76,45.92-199.63-.95-399.29,1.19-598.89-1.42-117.83-1.54-232.31-23.1-334.82-87.26-104.73-65.56-162.11-160.59-163.85-285.5-2.14-153.93-.51-307.92-.51-461.89,.2,0,.4,0,.6,0Z"/>
    <path class="cls-6" d="M5755.78,7442.09c0-205.74-3.7-411.57,1.38-617.18,3.07-124.22,50.62-229.42,168.79-288.87,65.73-33.07,136.74-48.27,208.49-50.2,246.41-6.63,492.93-9.02,739.41-13.33,26.93-.47,37.85,11.91,37.43,38.59-.52,33.16-.57,66.45,1.65,99.51,2.14,31.67-10.76,41.66-41.29,41.51-151.03-.75-302.13-2.24-453.06,2.03-41.48,1.17-85.71,14.89-122.83,34.27-51.3,26.79-63.08,82.61-67.73,136.01-4.13,47.44-1.57,95.49-1.62,143.27-.05,50.71,8.15,58.97,60.66,59,147.1,.09,294.21-.03,441.31-.47,60.12-.18,60.65,.09,60.04,62.62-.33,34.51-1.9,69.16,.58,103.49,2.71,37.5-13.42,48.58-48.37,48.29-148.41-1.22-296.83-.67-445.25-.8-66.53-.06-68.95,3.15-68.82,68.83,.52,258.83,.22,517.66,1.02,776.49,.1,31.51-13.04,41.62-42.84,41.46-130.01-.71-260.05-.92-390.05,.82-37.21,.5-39.44-20.11-39.39-48.23,.37-212.38,.2-424.75,.2-637.13h.28Z"/>
  </g>
  <g class="cls-3">
    <polygon class="cls-1" points="5431.16 12347 5624.04 11985.27 3967.76 11985.27 4164.65 12347 5431.16 12347"/>
    <polygon class="cls-1" points="5787.44 11685.71 5980.31 11323.98 3611.48 11323.98 3808.37 11685.71 5787.44 11685.71"/>
    <polygon class="cls-1" points="6137.63 11035.72 6330.5 10673.99 3261.29 10673.99 3458.18 11035.72 6137.63 11035.72"/>
    <polygon class="cls-1" points="7056.27 9331.63 7245 8977.67 2346.79 8975.55 2540.61 9331.63 4616.44 9331.63 4616.44 10004.22 2900.44 10004.22 3097.34 10365.95 6498.47 10365.95 6691.35 10004.22 4975.35 10004.22 4975.35 9331.63 7056.27 9331.63"/>
  </g>
  <path class="cls-2" d="M7052.84,5364.19l-2104.94,.61-.33-199.9s349.57,.24,553.12,.24c288.76,0,443.02-402.3,440.55-545.44-2.15-124.46-18.85-426.24-313.03-512.95-468.93-138.21-678.82-358.55-680.31-424.87-.89-39.55-.62-453.8-.62-453.8l478.11-700.49-186.59-184.7-294.71,374.32,5.65-1049.75h-335.66l19.74,1049.75-290.42-374.32-212.5,184.29,480.45,684.48s-2.5,343.72,15.89,422.63c76.51,328.25,276.42,550.38,701.34,711.22,69.01,26.12,189.3,35.67,245.57,92.55,75.69,76.51,131.68,371.03-100.37,371.03s-525.34,.57-525.9,0c-.16-.16,6.79-407.23-55.74-527.34-101.6-187.37-209.58-222.54-347.18-249.69-54.44-10.74-180.17-4.94-250.51-3.7-83.49,1.46-100.87-.69-174,1.23-214.78,5.65-526.52,164.95-515.92,548.68,8.81,318.63,217.09,505.22,420.48,582.11l592.75,4.53v199.3H2536.78l-163.31,301.93,4844.85,.21-165.48-302.13Zm-2430.9-574.86s-435.66,4.11-485,0c-105.96-8.83-194.86-122.82-185.08-231.18,13.14-145.62,89.65-215.54,153.82-224.59,76.11-10.73,371.86-27.97,450.83,20.57,64.94,39.91,65.43,133.27,65.43,133.27v301.94Z"/>
</svg>