<?xml version="1.0" encoding="UTF-8"?>
<svg id="Logo_REF_by_f5uii.net" data-name="Logo REF by f5uii.net" xmlns="http://www.w3.org/2000/svg" xmlns:xlink="http://www.w3.org/1999/xlink" viewBox="0 0 1104.15 1703.32">
  <defs>
    <style>
      .cls-1 {
        fill: url(#Dégradé_sans_nom_5);
        stroke: #312783;
      }

      .cls-1, .cls-2 {
        stroke-miterlimit: 10;
      }

      .cls-3, .cls-4 {
        fill: #ffd23c;
      }

      .cls-5 {
        filter: url(#drop-shadow-1);
      }

      .cls-6 {
        fill: #064783;
      }

      .cls-2 {
        fill: #fff;
        stroke: #27348b;
        stroke-width: 2px;
      }

      .cls-4 {
        filter: url(#drop-shadow-2);
      }
    </style>
    <linearGradient id="Dégradé_sans_nom_5" data-name="Dégradé sans nom 5" x1="885.37" y1="1571.53" x2="216" y2="136.05" gradientUnits="userSpaceOnUse">
      <stop offset="0" stop-color="#094883"/>
      <stop offset=".12" stop-color="#0a4983"/>
      <stop offset=".16" stop-color="#114e87"/>
      <stop offset=".19" stop-color="#1d578d"/>
      <stop offset=".21" stop-color="#2e6395"/>
      <stop offset=".23" stop-color="#4474a0"/>
      <stop offset=".25" stop-color="#5f88ae"/>
      <stop offset=".27" stop-color="#80a0bf"/>
      <stop offset=".28" stop-color="#a5bcd2"/>
      <stop offset=".3" stop-color="#cedbe6"/>
      <stop offset=".31" stop-color="#fcfdfd"/>
      <stop offset=".31" stop-color="#fff"/>
      <stop offset=".51" stop-color="#024c8c"/>
      <stop offset=".75" stop-color="#fff"/>
      <stop offset=".75" stop-color="#fcfdfd"/>
      <stop offset=".76" stop-color="#cedbe6"/>
      <stop offset=".77" stop-color="#a5bdd2"/>
      <stop offset=".78" stop-color="#80a1bf"/>
      <stop offset=".79" stop-color="#5f89af"/>
      <stop offset=".81" stop-color="#4474a1"/>
      <stop offset=".83" stop-color="#2e6496"/>
      <stop offset=".85" stop-color="#1d588e"/>
      <stop offset=".87" stop-color="#114f88"/>
      <stop offset=".9" stop-color="#0a4a84"/>
      <stop offset="1" stop-color="#094984"/>
    </linearGradient>
    <filter id="drop-shadow-1" filterUnits="userSpaceOnUse">
      <feOffset dx="-7" dy="7"/>
      <feGaussianBlur result="blur" stdDeviation="5"/>
      <feFlood flood-color="#000" flood-opacity=".4"/>
      <feComposite in2="blur" operator="in"/>
      <feComposite in="SourceGraphic"/>
    </filter>
    <filter id="drop-shadow-2" filterUnits="userSpaceOnUse">
      <feOffset dx="-7" dy="7"/>
      <feGaussianBlur result="blur-2" stdDeviation="5"/>
      <feFlood flood-color="#000" flood-opacity=".4"/>
      <feComposite in2="blur-2" operator="in"/>
      <feComposite in="SourceGraphic"/>
    </filter>
  </defs>
  <polygon class="cls-1" points="506.68 .5 605.75 .5 1103.57 854.22 603.81 1702.82 502.78 1702.82 .58 859.33 506.68 .5"/>
  <polygon class="cls-2" points="557.92 91.79 100.02 859.45 557.92 1617.62 1004.13 859.45 557.92 91.79"/>
  <g>
    <path class="cls-6" d="M424.93,830.63c1.17,.38,2.32,1,3.51,1.11,8.34,.77,15.72,3.92,22.23,9.13,6.21,4.97,9.84,11.28,9.75,19.59-.13,12.5-.05,25-.04,37.5,.01,10.44,2.84,14.03,13.24,15.14,4.48,.47,5.48,2.32,5.45,6.37-.08,13.56,.02,13.42-13.24,13.64-11.81,.2-23.65,.06-34.82-4.02-12.58-4.61-21.2-12.98-21.75-30.28-.33-10.51-.29-21.04,0-31.55,.46-16.93-6.5-20.58-20.55-22.02-6.73-.69-13.56-.31-20.34-.39-4.15-.05-4.87,2.63-4.86,6.09,.05,13.72,.02,27.44,.03,41.16,0,11.89-.11,23.78,.12,35.67,.07,4.02-1.35,5.43-5.24,5.39-14.48-.12-28.96-.11-43.44-.02-3.87,.02-5.22-1.38-5.07-5.48,.29-7.91-.14-15.84-.15-23.76-.02-47.56-.02-95.12,0-142.68,0-4.42,.29-8.84,.07-13.24-.17-3.37,1.07-4.84,4.34-4.81,4.22,.04,8.45,0,12.67,0,24.89,0,49.8-.62,74.66,.24,12.8,.44,25.88,1.84,37.6,8.36,10.45,5.82,17.13,14.38,18.15,26.58,.82,9.82,1.81,19.8-3.01,29.09-4.48,8.62-11.49,14.28-20.34,17.82-3.09,1.24-6.13,2.59-9.19,3.89,.07,.5,.14,1,.22,1.5Zm-61.52-37.29s.03,0,.04,0c0,8.08,.2,16.16-.09,24.23-.14,3.98,1.6,5.19,5.04,5.18,5.43-.02,10.86,.02,16.29-.04,10.14-.12,17.8-7.99,18.71-18.13,.64-7.1,.67-14.35,.02-21.45-.72-7.85-3.54-15.65-12.08-17.38-8.26-1.68-16.94-1.41-25.44-1.58-.8-.02-2.33,2.9-2.37,4.49-.24,8.22-.11,16.45-.11,24.68Z"/>
    <path class="cls-6" d="M502.14,837.14c0-18.6-1.07-37.28,.31-55.77,1.3-17.34,6.9-28.33,24.72-32.8,11.44-2.87,23.35-4.66,35.13-5.18,19.27-.85,38.61-.27,57.91-.28,5.56,0,5.9,.36,5.9,5.94,0,3.05-.23,6.12,.09,9.14,.46,4.32-1.36,5.62-5.41,5.59-13.88-.09-27.75-.06-41.63,.13-14.34,.2-24.22,9.38-23.62,24.04,.17,4.26-.03,8.54,.04,12.8,.09,5.19,.94,6.05,6.19,6.06,17.5,.03,35,0,52.49-.01,6.33,0,6.6,.26,6.59,6.69,0,3.96-.01,7.93,.02,11.89,.04,5.45-.46,6.01-5.9,6-16.44-.01-32.88-.04-49.33-.08q-10.08-.02-10.09,10.24c0,12.65,.21,25.31-.09,37.96-.16,6.7,.75,13.09,3.5,19.09,3.26,7.1,9.22,11.03,16.63,12.76,16.81,3.94,33.89,2.26,50.88,2.46,6.76,.08,7.1,.23,7.04,7.19-.02,2.29-.17,4.59,.02,6.86,.34,4.09-1.58,5.29-5.37,5.27-22.93-.11-45.86,.14-68.78-.16-13.53-.18-26.68-2.65-38.45-10.02-12.03-7.53-18.62-18.44-18.82-32.79-.25-17.68-.06-35.37-.06-53.05,.02,0,.05,0,.07,0Z"/>
    <path class="cls-6" d="M660.85,854.55c0-23.63-.43-47.27,.16-70.89,.35-14.27,5.81-26.35,19.39-33.18,7.55-3.8,15.7-5.54,23.95-5.77,28.3-.76,56.61-1.04,84.92-1.53,3.09-.05,4.35,1.37,4.3,4.43-.06,3.81-.07,7.63,.19,11.43,.25,3.64-1.24,4.79-4.74,4.77-17.35-.09-34.7-.26-52.04,.23-4.76,.13-9.84,1.71-14.11,3.94-5.89,3.08-7.25,9.49-7.78,15.62-.47,5.45-.18,10.97-.19,16.46,0,5.82,.94,6.77,6.97,6.78,16.9,.01,33.79,0,50.69-.05,6.91-.02,6.97,.01,6.9,7.19-.04,3.96-.22,7.94,.07,11.89,.31,4.31-1.54,5.58-5.56,5.55-17.04-.14-34.09-.08-51.14-.09-7.64,0-7.92,.36-7.9,7.91,.06,29.73,.02,59.45,.12,89.18,.01,3.62-1.5,4.78-4.92,4.76-14.93-.08-29.87-.11-44.8,.09-4.27,.06-4.53-2.31-4.52-5.54,.04-24.39,.02-48.78,.02-73.18h.03Z"/>
  </g>
  <g class="cls-5">
    <polygon class="cls-3" points="623.56 1417.9 645.72 1376.35 455.49 1376.35 478.1 1417.9 623.56 1417.9"/>
    <polygon class="cls-3" points="664.48 1341.95 686.64 1300.4 414.57 1300.4 437.18 1341.95 664.48 1341.95"/>
    <polygon class="cls-3" points="704.7 1267.29 726.86 1225.75 374.35 1225.75 396.96 1267.29 704.7 1267.29"/>
    <polygon class="cls-3" points="810.21 1071.57 831.89 1030.92 269.32 1030.68 291.58 1071.57 529.99 1071.57 529.99 1148.82 332.9 1148.82 355.52 1190.37 746.15 1190.37 768.3 1148.82 571.21 1148.82 571.21 1071.57 810.21 1071.57"/>
  </g>
  <path class="cls-4" d="M809.82,615.9l-241.76,.07-.04-22.96s40.15,.03,63.53,.03c33.17,0,50.88-46.2,50.6-62.65-.25-14.29-2.16-48.95-35.95-58.91-53.86-15.87-77.96-41.18-78.14-48.8-.1-4.54-.07-52.12-.07-52.12l54.91-80.45-21.43-21.21-33.85,42.99,.65-120.57h-38.55l2.27,120.57-33.36-42.99-24.41,21.17,55.18,78.61s-.29,39.48,1.82,48.54c8.79,37.7,31.75,63.21,80.55,81.69,7.93,3,21.74,4.1,28.2,10.63,8.69,8.79,15.12,42.61-11.53,42.61s-60.34,.07-60.4,0c-.02-.02,.78-46.77-6.4-60.57-11.67-21.52-24.07-25.56-39.87-28.68-6.25-1.23-20.69-.57-28.77-.43-9.59,.17-11.58-.08-19.98,.14-24.67,.65-60.47,18.94-59.25,63.02,1.01,36.6,24.93,58.03,48.29,66.86l68.08,.52v22.89h-239.01l-18.76,34.68,556.44,.02-19.01-34.7Zm-279.2-66.02s-50.04,.47-55.7,0c-12.17-1.01-22.38-14.11-21.26-26.55,1.51-16.72,10.3-24.76,17.67-25.8,8.74-1.23,42.71-3.21,51.78,2.36,7.46,4.58,7.51,15.31,7.51,15.31v34.68Z"/>
</svg>